<svg data-v-fde0c5aa="" xmlns="http://www.w3.org/2000/svg" viewBox="0 0 300 300" class="iconLeft"><!----><defs data-v-fde0c5aa=""><!----></defs><rect data-v-fde0c5aa="" fill="transparent" x="0" y="0" width="300px" height="300px" class="logo-background-square"></rect><defs data-v-fde0c5aa=""><!----></defs><g data-v-fde0c5aa="" id="5f7786a8-8292-4055-93f2-e443e47cc7a4" fill="#000000" transform="matrix(2.804655212195979,0,0,2.804655212195979,99.91028003314983,126.80550144863379)"><path d="M9.80 5.82L8.33 5.82L8.33 5.82Q7.88 5.04 7.12 4.60L7.12 4.60L7.12 4.60Q6.36 4.16 5.43 4.16L5.43 4.16L5.43 4.16Q4.64 4.16 3.99 4.49L3.99 4.49L3.99 4.49Q3.33 4.83 2.86 5.39L2.86 5.39L2.86 5.39Q2.39 5.95 2.13 6.70L2.13 6.70L2.13 6.70Q1.87 7.44 1.87 8.26L1.87 8.26L1.87 8.26Q1.87 9.23 2.16 9.98L2.16 9.98L2.16 9.98Q2.45 10.73 2.91 11.22L2.91 11.22L2.91 11.22Q3.37 11.72 4.01 12.05L4.01 12.05L4.01 12.05Q4.64 12.38 5.43 12.38L5.43 12.38L5.43 12.38Q6.51 12.38 7.31 11.86L7.31 11.86L7.31 11.86Q8.11 11.33 8.68 10.14L8.68 10.14L9.88 10.71L9.88 10.71Q9.63 11.44 9.00 12.13L9.00 12.13L9.00 12.13Q8.38 12.82 7.47 13.24L7.47 13.24L7.47 13.24Q6.56 13.66 5.45 13.66L5.45 13.66L5.45 13.66Q4.39 13.66 3.50 13.26L3.50 13.26L3.50 13.26Q2.61 12.86 1.92 12.12L1.92 12.12L1.92 12.12Q1.22 11.38 0.86 10.37L0.86 10.37L0.86 10.37Q0.49 9.36 0.49 8.26L0.49 8.26L0.49 8.26Q0.49 7.15 0.86 6.17L0.86 6.17L0.86 6.17Q1.22 5.18 1.88 4.45L1.88 4.45L1.88 4.45Q2.54 3.73 3.46 3.31L3.46 3.31L3.46 3.31Q4.37 2.88 5.43 2.88L5.43 2.88L5.43 2.88Q6.38 2.88 7.08 3.15L7.08 3.15L7.08 3.15Q7.77 3.42 8.25 3.80L8.25 3.80L8.25 3.80Q8.73 4.17 9.08 4.61L9.08 4.61L9.80 4.61L9.80 5.82ZM15.16 13.45L15.16 12.80L15.16 12.80Q14.76 13.17 14.27 13.41L14.27 13.41L14.27 13.41Q13.78 13.65 13.16 13.65L13.16 13.65L13.16 13.65Q12.64 13.65 12.21 13.49L12.21 13.49L12.21 13.49Q11.77 13.32 11.46 13.04L11.46 13.04L11.46 13.04Q11.14 12.76 10.97 12.38L10.97 12.38L10.97 12.38Q10.79 12.00 10.79 11.58L10.79 11.58L10.79 11.58Q10.79 11.13 10.93 10.78L10.93 10.78L10.93 10.78Q11.06 10.43 11.28 10.18L11.28 10.18L11.28 10.18Q11.50 9.92 11.80 9.74L11.80 9.74L11.80 9.74Q12.10 9.57 12.42 9.46L12.42 9.46L12.42 9.46Q12.75 9.36 13.09 9.31L13.09 9.31L13.09 9.31Q13.43 9.27 13.73 9.27L13.73 9.27L13.73 9.27Q14.23 9.27 14.56 9.30L14.56 9.30L14.56 9.30Q14.90 9.33 15.17 9.39L15.17 9.39L15.18 8.80L15.18 8.80Q15.18 8.43 15.07 8.15L15.07 8.15L15.07 8.15Q14.96 7.88 14.76 7.69L14.76 7.69L14.76 7.69Q14.56 7.51 14.28 7.42L14.28 7.42L14.28 7.42Q14.01 7.33 13.67 7.33L13.67 7.33L13.67 7.33Q13.34 7.33 13.05 7.38L13.05 7.38L13.05 7.38Q12.76 7.42 12.50 7.50L12.50 7.50L12.50 7.50Q12.24 7.57 12.03 7.66L12.03 7.66L12.03 7.66Q11.81 7.75 11.66 7.85L11.66 7.85L11.25 6.97L11.25 6.97Q11.50 6.81 11.80 6.67L11.80 6.67L11.80 6.67Q12.10 6.53 12.43 6.43L12.43 6.43L12.43 6.43Q12.76 6.33 13.11 6.27L13.11 6.27L13.11 6.27Q13.45 6.21 13.79 6.21L13.79 6.21L13.79 6.21Q14.40 6.21 14.90 6.36L14.90 6.36L14.90 6.36Q15.39 6.51 15.73 6.82L15.73 6.82L15.73 6.82Q16.07 7.12 16.26 7.60L16.26 7.60L16.26 7.60Q16.44 8.07 16.44 8.74L16.44 8.74L16.43 12.28L17.22 12.28L17.22 13.45L15.16 13.45ZM13.44 12.58L13.44 12.58L13.44 12.58Q13.69 12.58 13.95 12.52L13.95 12.52L13.95 12.52Q14.20 12.46 14.42 12.36L14.42 12.36L14.42 12.36Q14.65 12.25 14.84 12.11L14.84 12.11L14.84 12.11Q15.03 11.97 15.16 11.82L15.16 11.82L15.17 10.22L13.69 10.22L13.69 10.22Q13.32 10.22 13.02 10.30L13.02 10.30L13.02 10.30Q12.71 10.38 12.49 10.54L12.49 10.54L12.49 10.54Q12.27 10.70 12.15 10.93L12.15 10.93L12.15 10.93Q12.02 11.16 12.02 11.46L12.02 11.46L12.02 11.46Q12.02 11.74 12.13 11.95L12.13 11.95L12.13 11.95Q12.23 12.16 12.42 12.30L12.42 12.30L12.42 12.30Q12.61 12.44 12.87 12.51L12.87 12.51L12.87 12.51Q13.13 12.58 13.44 12.58ZM23.75 6.33L23.75 7.87L22.45 7.87L22.45 7.43L22.45 7.43Q22.22 7.43 21.99 7.52L21.99 7.52L21.99 7.52Q21.75 7.60 21.55 7.78L21.55 7.78L21.55 7.78Q21.34 7.95 21.19 8.22L21.19 8.22L21.19 8.22Q21.03 8.49 20.97 8.86L20.97 8.86L20.97 12.28L22.17 12.28L22.17 13.45L18.66 13.45L18.66 12.28L19.63 12.28L19.64 7.55L18.66 7.55L18.66 6.37L20.92 6.37L20.92 7.35L20.92 7.35Q21.04 7.13 21.19 6.94L21.19 6.94L21.19 6.94Q21.35 6.75 21.54 6.61L21.54 6.61L21.54 6.61Q21.72 6.47 21.95 6.40L21.95 6.40L21.95 6.40Q22.18 6.32 22.45 6.32L22.45 6.32L22.45 6.32Q22.80 6.32 23.12 6.32L23.12 6.32L23.12 6.32Q23.43 6.32 23.75 6.33L23.75 6.33ZM31.52 10.08L26.42 10.08L26.42 10.08Q26.42 10.38 26.47 10.63L26.47 10.63L26.47 10.63Q26.51 10.88 26.59 11.10L26.59 11.10L26.59 11.10Q26.84 11.79 27.40 12.13L27.40 12.13L27.40 12.13Q27.96 12.48 28.66 12.48L28.66 12.48L28.66 12.48Q29.22 12.48 29.74 12.32L29.74 12.32L29.74 12.32Q30.26 12.17 30.84 11.84L30.84 11.84L31.35 12.71L31.35 12.71Q30.65 13.19 29.95 13.42L29.95 13.42L29.95 13.42Q29.24 13.65 28.49 13.65L28.49 13.65L28.49 13.65Q27.77 13.65 27.16 13.41L27.16 13.41L27.16 13.41Q26.54 13.17 26.10 12.70L26.10 12.70L26.10 12.70Q25.66 12.23 25.41 11.53L25.41 11.53L25.41 11.53Q25.16 10.82 25.16 9.88L25.16 9.88L25.16 9.88Q25.16 9.13 25.38 8.45L25.38 8.45L25.38 8.45Q25.59 7.78 26.01 7.28L26.01 7.28L26.01 7.28Q26.43 6.77 27.05 6.48L27.05 6.48L27.05 6.48Q27.67 6.19 28.50 6.19L28.50 6.19L28.50 6.19Q29.30 6.19 29.84 6.43L29.84 6.43L29.84 6.43Q30.37 6.67 30.71 7.07L30.71 7.07L30.71 7.07Q31.05 7.47 31.22 7.98L31.22 7.98L31.22 7.98Q31.40 8.50 31.47 9.03L31.47 9.03L31.47 9.03Q31.50 9.29 31.51 9.56L31.51 9.56L31.51 9.56Q31.52 9.82 31.52 10.08L31.52 10.08ZM28.41 7.25L28.41 7.25L28.41 7.25Q27.97 7.25 27.63 7.38L27.63 7.38L27.63 7.38Q27.30 7.51 27.07 7.74L27.07 7.74L27.07 7.74Q26.84 7.98 26.70 8.32L26.70 8.32L26.70 8.32Q26.56 8.66 26.49 9.08L26.49 9.08L30.16 9.08L30.16 9.08Q30.13 8.69 30.03 8.35L30.03 8.35L30.03 8.35Q29.93 8.02 29.73 7.77L29.73 7.77L29.73 7.77Q29.52 7.53 29.20 7.39L29.20 7.39L29.20 7.39Q28.88 7.25 28.41 7.25ZM37.90 5.80L37.90 5.80L37.90 5.80Q37.90 5.53 37.79 5.23L37.79 5.23L37.79 5.23Q37.67 4.92 37.44 4.67L37.44 4.67L37.44 4.67Q37.20 4.41 36.84 4.24L36.84 4.24L36.84 4.24Q36.48 4.07 36.00 4.07L36.00 4.07L36.00 4.07Q35.59 4.07 35.26 4.21L35.26 4.21L35.26 4.21Q34.93 4.35 34.60 4.74L34.60 4.74L34.60 4.74Q34.28 5.12 34.25 5.58L34.25 5.58L32.95 5.58L32.95 5.58Q32.98 4.99 33.25 4.51L33.25 4.51L33.25 4.51Q33.51 4.03 33.91 3.67L33.91 3.67L33.91 3.67Q34.32 3.31 34.86 3.10L34.86 3.10L34.86 3.10Q35.40 2.88 35.98 2.88L35.98 2.88L35.98 2.88Q36.72 2.88 37.31 3.13L37.31 3.13L37.31 3.13Q37.91 3.37 38.33 3.77L38.33 3.77L38.33 3.77Q38.75 4.17 38.98 4.68L38.98 4.68L38.98 4.68Q39.20 5.20 39.20 5.73L39.20 5.73L39.20 5.73Q39.20 6.06 39.12 6.38L39.12 6.38L39.12 6.38Q39.04 6.71 38.87 7.01L38.87 7.01L38.87 7.01Q38.69 7.31 38.42 7.56L38.42 7.56L38.42 7.56Q38.14 7.81 37.75 8.00L37.75 8.00L37.75 8.00Q38.08 8.13 38.36 8.35L38.36 8.35L38.36 8.35Q38.64 8.57 38.86 8.88L38.86 8.88L38.86 8.88Q39.07 9.19 39.19 9.58L39.19 9.58L39.19 9.58Q39.31 9.97 39.31 10.43L39.31 10.43L39.31 10.43Q39.31 11.10 39.05 11.67L39.05 11.67L39.05 11.67Q38.79 12.24 38.35 12.66L38.35 12.66L38.35 12.66Q37.91 13.08 37.31 13.31L37.31 13.31L37.31 13.31Q36.71 13.55 36.03 13.55L36.03 13.55L36.03 13.55Q35.40 13.55 34.78 13.33L34.78 13.33L34.78 13.33Q34.16 13.10 33.73 12.69L33.73 12.69L33.73 12.69Q33.30 12.28 33.09 11.84L33.09 11.84L33.09 11.84Q32.89 11.40 32.85 10.96L32.85 10.96L34.16 10.96L34.16 10.96Q34.36 11.59 34.87 11.96L34.87 11.96L34.87 11.96Q35.38 12.32 36.16 12.32L36.16 12.32L36.16 12.32Q36.52 12.32 36.86 12.17L36.86 12.17L36.86 12.17Q37.19 12.03 37.45 11.77L37.45 11.77L37.45 11.77Q37.71 11.52 37.87 11.17L37.87 11.17L37.87 11.17Q38.03 10.83 38.03 10.42L38.03 10.42L38.03 10.42Q38.03 9.99 37.87 9.64L37.87 9.64L37.87 9.64Q37.71 9.29 37.45 9.05L37.45 9.05L37.45 9.05Q37.18 8.80 36.83 8.67L36.83 8.67L36.83 8.67Q36.48 8.54 36.08 8.54L36.08 8.54L35.49 8.54L35.49 7.51L35.97 7.51L35.97 7.51Q36.42 7.51 36.78 7.37L36.78 7.37L36.78 7.37Q37.14 7.24 37.39 7.01L37.39 7.01L37.39 7.01Q37.63 6.77 37.77 6.46L37.77 6.46L37.77 6.46Q37.90 6.15 37.90 5.80ZM44.13 3.09L45.73 3.09L43.40 6.97L43.40 6.97Q43.82 6.79 44.16 6.76L44.16 6.76L44.16 6.76Q44.50 6.73 44.76 6.73L44.76 6.73L44.76 6.73Q45.39 6.73 45.98 6.97L45.98 6.97L45.98 6.97Q46.57 7.21 47.02 7.63L47.02 7.63L47.02 7.63Q47.48 8.06 47.75 8.65L47.75 8.65L47.75 8.65Q48.02 9.24 48.02 9.95L48.02 9.95L48.02 9.95Q48.02 10.82 47.73 11.50L47.73 11.50L47.73 11.50Q47.43 12.17 46.94 12.64L46.94 12.64L46.94 12.64Q46.44 13.10 45.78 13.35L45.78 13.35L45.78 13.35Q45.12 13.59 44.38 13.59L44.38 13.59L44.38 13.59Q43.68 13.59 43.04 13.34L43.04 13.34L43.04 13.34Q42.39 13.08 41.89 12.63L41.89 12.63L41.89 12.63Q41.39 12.17 41.09 11.54L41.09 11.54L41.09 11.54Q40.80 10.90 40.80 10.12L40.80 10.12L40.80 10.12Q40.80 9.52 41.03 8.93L41.03 8.93L41.03 8.93Q41.25 8.34 41.60 7.70L41.60 7.70L44.13 3.09ZM44.23 7.85L44.23 7.85L44.23 7.85Q43.74 7.85 43.39 8.01L43.39 8.01L43.39 8.01Q43.05 8.16 42.74 8.44L42.74 8.44L42.74 8.44Q42.43 8.72 42.25 9.14L42.25 9.14L42.25 9.14Q42.08 9.57 42.08 10.13L42.08 10.13L42.08 10.13Q42.08 10.66 42.25 11.09L42.25 11.09L42.25 11.09Q42.43 11.51 42.75 11.80L42.75 11.80L42.75 11.80Q43.06 12.09 43.49 12.25L43.49 12.25L43.49 12.25Q43.91 12.40 44.41 12.40L44.41 12.40L44.41 12.40Q44.88 12.40 45.30 12.24L45.30 12.24L45.30 12.24Q45.73 12.07 46.05 11.77L46.05 11.77L46.05 11.77Q46.37 11.47 46.56 11.05L46.56 11.05L46.56 11.05Q46.75 10.64 46.75 10.13L46.75 10.13L46.75 10.13Q46.75 9.57 46.55 9.14L46.55 9.14L46.55 9.14Q46.34 8.72 46.00 8.43L46.00 8.43L46.00 8.43Q45.65 8.14 45.19 8.00L45.19 8.00L45.19 8.00Q44.73 7.85 44.23 7.85ZM53.17 13.58L53.17 13.58L53.17 13.58Q52.06 13.58 51.32 13.17L51.32 13.17L51.32 13.17Q50.57 12.76 50.12 12.04L50.12 12.04L50.12 12.04Q49.68 11.32 49.49 10.36L49.49 10.36L49.49 10.36Q49.29 9.39 49.29 8.29L49.29 8.29L49.29 8.29Q49.29 7.10 49.55 6.07L49.55 6.07L49.55 6.07Q49.81 5.04 50.25 4.42L50.25 4.42L50.25 4.42Q50.69 3.80 51.35 3.36L51.35 3.36L51.35 3.36Q52.02 2.93 53.18 2.93L53.18 2.93L53.18 2.93Q54.28 2.93 55.02 3.27L55.02 3.27L55.02 3.27Q55.75 3.62 56.22 4.34L56.22 4.34L56.22 4.34Q56.70 5.07 56.89 6.08L56.89 6.08L56.89 6.08Q57.08 7.10 57.08 8.24L57.08 8.24L57.08 8.24Q57.08 9.36 56.89 10.33L56.89 10.33L56.89 10.33Q56.70 11.30 56.24 12.02L56.24 12.02L56.24 12.02Q55.79 12.74 55.04 13.16L55.04 13.16L55.04 13.16Q54.28 13.58 53.17 13.58ZM53.17 12.36L53.17 12.36L53.17 12.36Q53.97 12.36 54.46 12.03L54.46 12.03L54.46 12.03Q54.95 11.71 55.20 11.15L55.20 11.15L55.20 11.15Q55.45 10.59 55.57 9.84L55.57 9.84L55.57 9.84Q55.69 9.09 55.69 8.24L55.69 8.24L55.69 8.24Q55.69 7.43 55.60 6.68L55.60 6.68L55.60 6.68Q55.50 5.93 55.23 5.36L55.23 5.36L55.23 5.36Q54.95 4.79 54.46 4.44L54.46 4.44L54.46 4.44Q53.97 4.10 53.18 4.10L53.18 4.10L53.18 4.10Q52.37 4.10 51.90 4.44L51.90 4.44L51.90 4.44Q51.43 4.79 51.19 5.27L51.19 5.27L51.19 5.27Q50.96 5.75 50.83 6.59L50.83 6.59L50.83 6.59Q50.70 7.43 50.70 8.24L50.70 8.24L50.70 8.24Q50.70 9.09 50.78 9.84L50.78 9.84L50.78 9.84Q50.87 10.59 51.13 11.15L51.13 11.15L51.13 11.15Q51.39 11.71 51.88 12.03L51.88 12.03L51.88 12.03Q52.37 12.36 53.17 12.36Z"></path></g><defs data-v-fde0c5aa=""><linearGradient data-v-fde0c5aa="" gradientTransform="rotate(25)" id="87f99e9c-b6a0-4d87-90d6-5f15a1fb876e" x1="0%" y1="0%" x2="100%" y2="0%"><stop data-v-fde0c5aa="" offset="0%" stop-color="#968ABF" stop-opacity="1"></stop><stop data-v-fde0c5aa="" offset="100%" stop-color="#E4A8AA" stop-opacity="1"></stop></linearGradient></defs><g data-v-fde0c5aa="" id="afd93428-ed22-4c24-8c98-8d3c35267ebb" stroke="none" fill="url(#87f99e9c-b6a0-4d87-90d6-5f15a1fb876e)" transform="matrix(1.5088925348085354,0,0,1.5088925348085354,40,125.85771962293745)"><path d="M17.572 23.933l4.106 7.095L32 13.189h-8.981V7.582L11.51.972 0 7.582v13.222l11.51 6.611 6.062-3.482zm10.96-8.744l-6.855 11.846-6.855-11.846h13.71z"></path></g><!----></svg>